<svg height="512pt" viewBox="-160 0 512 512" width="512pt" xmlns="http://www.w3.org/2000/svg"><path d="m182 415.5c-2.628906 0-5.210938 1.070312-7.070312 2.929688-1.859376 1.859374-2.929688 4.441406-2.929688 7.070312s1.070312 5.210938 2.929688 7.070312c1.859374 1.859376 4.441406 2.929688 7.070312 2.929688s5.210938-1.070312 7.070312-2.929688c1.859376-1.859374 2.929688-4.441406 2.929688-7.070312s-1.070312-5.210938-2.929688-7.070312c-1.859374-1.859376-4.441406-2.929688-7.070312-2.929688zm0 0"/><path d="m162.25 231.953125c-17.792969-31.773437-27.199219-67.8125-27.199219-104.230469v-107.082031c0-11.378906-9.257812-20.640625-20.640625-20.640625h-36.902344c-11.382812 0-20.644531 9.261719-20.644531 20.640625v107.15625c0 36.367187-9.382812 72.371094-27.140625 104.132813l-.042968.078124c-19.417969 34.71875-29.679688 74.09375-29.679688 113.875v137.164063c0 15.964844 12.988281 28.953125 28.953125 28.953125h134.09375c15.964844 0 28.953125-12.988281 28.953125-28.953125v-22.046875c0-5.523438-4.476562-10-10-10s-10 4.476562-10 10v22.046875c0 4.9375-4.015625 8.953125-8.953125 8.953125h-134.09375c-4.9375 0-8.953125-4.015625-8.953125-8.953125v-137.164063c0-36.371093 9.382812-72.371093 27.144531-104.132812l.042969-.078125c15.515625-27.742187 25.175781-58.460937 28.4375-89.984375h40.675781c3.269531 31.542969 12.957031 62.28125 28.5 90.039062 17.792969 31.769532 27.199219 67.8125 27.199219 104.230469v37.738281c0 5.523438 4.476562 10 10 10s10-4.476562 10-10v-37.738281c0-39.832031-10.285156-79.253906-29.75-114.003906zm-85.386719-211.3125c0-.351563.289063-.640625.644531-.640625h36.902344c.355469 0 .644532.289062.644532.640625v27.328125h-38.191407zm-.03125 111.046875c.019531-1.296875.03125-2.59375.03125-3.890625v-59.828125h38.191407v59.753906c0 1.320313.011718 2.640625.035156 3.964844zm0 0"/><path d="m49.945312 309.265625c-5.519531 0-10 4.476563-10 10v128.863281c0 5.523438 4.480469 10 10 10h92.109376c5.519531 0 10-4.476562 10-10v-128.863281c0-5.523437-4.480469-10-10-10zm82.109376 128.863281h-72.109376v-108.863281h72.109376zm0 0"/></svg>